<svg xmlns="http://www.w3.org/2000/svg" xmlns:xlink="http://www.w3.org/1999/xlink" viewBox="0 0 1000 1000">
  <defs>
    <path id="d" d="M4 0H3v-8H0v-1h7v1H4v8zm0 0"/>
    <path id="e" d="M8 0H7v-4H2v4H1v-9h1v4h5v-4h1v9zm0 0"/>
    <path id="f" d="M4 0H0v-1h1v-7H0v-1h4v1H3v7h1v1zm0 0"/>
    <path id="g" d="M6-2L5-1 3 0H1v-1a7 7 0 002 0h1l1-1v-1H4L3-4 1-5v-1-2l2-1 3 1-1 1-2-1-1 1v1l1 1h1l1 1a2 2 0 011 2zm0 0"/>
    <path id="i" d="M2 0H1v-9h5v1H2v3h4v1H2v4zm0 0"/>
    <path id="j" d="M1 0v-9h1v8h4v1H1zm0 0"/>
    <path id="k" d="M9-4L8-1 5 0 2-1 1-4l1-4 3-1 3 1 1 4zM2-4l1 2 2 1 2-1 1-2-1-3-2-1-2 1-1 3zm0 0"/>
    <path id="l" d="M2-4h2l1-1 1-1-1-1-2-1H2v4zm0 0v4H1v-9h3l2 1 1 2-2 2 2 4H6L4-4H2zm0 0"/>
    <path id="m" d="M7-6L6-4 3-3H2v3H1v-9h2c3 0 4 1 4 3zM2-4h1l2-1 1-1-1-1-2-1H2v4zm0 0"/>
    <path id="n" d="M7 0L6-3H2L1 0H0l3-9h1l4 9H7zM5-4L4-6v-1L3-6 2-4h3zm0 0"/>
    <path id="o" d="M8 0H7L2-7v7H1v-9h1l1 1 2 4 2 3a20 20 0 010-3v-5h1v9zm0 0"/>
    <path id="p" d="M0-9h1l2 6 1 2v-2l2-6h1L4 0H3L0-9zm0 0"/>
    <path id="q" d="M8-4L7-1 4 0H1v-9h3l3 2 1 3zM7-4L6-7 4-8H2v7h1c3 0 4-1 4-3zm0 0"/>
    <path id="r" d="M6 0H1v-9h5v1H2v3h4v1H2v3h4v1zm0 0"/>
    <path id="s" d="M9 0H8L6-6v-1L5-6 4 0H2L0-9h1l2 6v0l2-6h1l2 6v2l1-2 1-6h1L9 0zm0 0"/>
    <path id="t" d="M8-9v6L7-1 4 0 2-1 1-3v-6h1v6l1 2h3l1-2v-6h1zm0 0"/>
    <path id="u" d="M3-4l3-5h1L4-3v3H3v-3L0-9h1l2 5zm0 0"/>
    <path id="v" d="M7 0H6L3-4 2-3v3H1v-9h1v5l1-1 3-4h1L4-5l3 5zm0 0"/>
    <path id="w" d="M1-1h1v1H1v-1zm0 0"/>
    <path id="x" d="M5-8L3-7 2-4l1 2 2 1h2v1a5 5 0 01-2 0L2-1 1-4v-3l2-1 2-1 2 1v1L5-8zm0 0"/>
    <path id="y" d="M5 0L2-8v8H1v-9h2l2 7 3-7h2v9H9v-5-2L6 0H5zm0 0"/>
    <path id="z" d="M5-5h3v5H6 5L2-1 1-4v-3l2-1 2-1 3 1-1 1-2-1-2 1-1 3 1 2 2 1h2v-3H5v-1zm0 0"/>
    <path id="A" d="M2-1L1 2H0l1-3h1zm0 0"/>
    <path id="B" d="M9-4L8-2 6 0l2 2H7L5 0 2-1 1-4l1-4 3-1 3 1 1 4zM2-4l1 2 2 1 2-1 1-2-1-3-2-1-2 1-1 3zm0 0"/>
    <clipPath id="a">
      <path d="M0 0h8v8H0z"/>
    </clipPath>
    <pattern id="c" width="8" height="8" patternTransform="translate(586 753)" patternUnits="userSpaceOnUse">
      <use xlink:href="#b"/>
    </pattern>
    <g id="b" fill="none" stroke="#7F7F7F" stroke-miterlimit="10" stroke-width="1.5" clip-path="url(#a)">
      <path d="M-4 8L8-4M-4 16L16-4"/>
    </g>
  </defs>
  <path fill="none" d="M-1-1h1002v1002H-1z"/>
  <g>
    <path d="M202 197h-77l-2 615 274 1v45h138v29l-439 1v-2l2-717h104v28m356 472h-2v23h-39V372h19l1 184 224-1v-60h114l2-298H733v-13h-1l145-1v-14h27l-2 718H639v-29h26l-1-102h12v51h159v-30h37V569H676v105h-12v-5h-19v-13h15v-87H551v87h7v13m291 122v68h24v-68h-24m-726 34v34l261-1v-33H123m554-5v39h158v-39H677m97-312v47h100v-47H774M517 197h-80v-27h75v13h40v2h9v12h-26l1 93h-19v-93m132 0v-13 13m-368-28v28h-1v-28h1"/>
    <path d="M552 185h9v6l-15 1v-9h6v2m97 6v-7 7M883 50v139l-150 1v-6h-1l145-1V57h-1v-7h7m-331 50v1h-7v-4l3-2 4 5m257-50v6h-2v-6h2m-136-1v6h-1v-6h2m-69-1v7h-1l-4-5 2-2h3"/>
    <path fill="#b2b2b2" fill-opacity=".5" stroke="null" stroke-width="null" d="M280 183v14h1v-14h156v14h80v93h19l-1-93h26v-13h88v13h0v-13l83-1 1 14h144l-2 298H761v60l-224 1-1-184h-19v320h39v-23h2v-13h-7v-87h109v87h-15v13h19v5h12V569h196v208h-37v30H676v-51h-12l1 102h-26v14H535v-14H397v-45l-274-1 2-615h77v-14h78" opacity=".5"/>
    <path fill="#00001A" fill-opacity=".1" d="M873 859h-24v-68h24v68m-489-1l-261 1v-34h261v33m452 1H677v-39h159v39m38-304H774v-47h100v47"/>
    <path fill="url(#c)" d="M873 859h-24v-68h24v68m-489-1l-261 1v-34h261v33m452 1H677v-39h159v39m38-304H774v-47h100v47"/>
    <path fill="#FFF" stroke="#000" stroke-miterlimit="10" stroke-width="2" d="M230 446c4-4 4-215-1-220-4-4-47-3-47-3l1 224s43 2 47-1zm0 0"/>
    <path fill="#FFF" stroke="#000" stroke-miterlimit="10" stroke-width="2" d="M171 441v-62c0-2 2-4 5-4h48c3 0 5 2 5 4v61c0 3-2 5-5 5h-48c-3 0-5-2-5-4zm0 0M171 370v-67c0-3 2-5 5-5h48c3 0 5 2 5 5v67c0 3-2 5-5 5h-48c-3 0-5-2-5-5zm0 0M171 294v-62c0-2 2-4 5-4h48c2 0 5 2 5 4v62c0 2-2 4-5 4h-48c-3 0-5-2-5-4zm0 0M127 456v-73c0-2 2-4 5-4h10c2 0 5 2 5 4v73c0 3-2 4-5 4h-10c-3 0-5-1-5-4h0zm0 0M127 373v-73c0-2 2-4 5-4h10c2 0 5 2 5 4v73c0 2-3 4-5 4h-10c-3 0-5-1-5-4zm0 0M127 290v-73c0-3 2-5 5-5h10c2 0 4 2 4 5l1 73c0 3-3 5-5 5h-10c-3 0-5-2-5-5zm0 0"/>
    <path fill="#FFF" stroke="#000" stroke-miterlimit="10" stroke-width="2" d="M147 459v-81c2-2 23-5 24-4 2 1 1 70 1 70l-25 15zm0 0"/>
    <path fill="#FFF" stroke="#000" stroke-miterlimit="10" stroke-width="2" d="M148 376c-2-1-2-78-1-80 2-1 23 1 25 2s1 75-1 76-22 3-23 2zm0 0"/>
    <path fill="#FFF" stroke="#000" stroke-miterlimit="10" stroke-width="2" d="M147 213v82c2 1 23 5 25 4s0-70 0-70-24-17-25-16z"/>
    <path fill="#FFF" stroke="#000" stroke-miterlimit="10" stroke-width="2" d="M160 223v-3c0-3 2-5 4-5h57c3 0 5 2 5 5v3c0 3-2 5-5 5h-57c-2 0-4-2-4-5zm0 0M160 454v-4c0-3 2-5 4-5h58c2 0 4 2 4 5v4c0 2-2 4-4 4h-58c-2 0-4-2-4-4zm0 0"/>
    <path fill="#FFF" stroke="#000" stroke-miterlimit="10" stroke-width="5" d="M142 545h35l2 2v24l-2 2h-35c-2 0-2-1-2-2l-1-24c0-1 1-2 3-2zm0 0M142 652h35l2-2a51074 51074 0 01-2-27h-35l-2 2v25l2 2zm0 0"/>
    <path fill="#FFF" stroke="#000" stroke-miterlimit="10" stroke-width="5" d="M142 534h4l3 13h-4l-3-13h0zm0 0M173 534h4l-3 13h-4l3-13zm0 0"/>
    <path fill="#FFF" stroke="#000" stroke-miterlimit="10" stroke-width="5" d="M141 539c1 1 1 3 2 2 8-3 23-3 31 0l3-1 2-3c1-1 1-2-1-3-13-5-23-4-37 0-2 0-3 1-2 3l2 2zm0 0M143 663h4l2-13h-4l-2 13zm0 0M173 663h4l-2-13h-4l2 13zm0 0"/>
    <path fill="#FFF" stroke="#000" stroke-miterlimit="10" stroke-width="5" d="M142 658c0-1 0-3 2-2 8 3 23 3 30 0l4 1 2 3c1 1 1 2-1 3-14 5-24 4-38 0-1 0-2-1-1-3l2-2zm0 0M213 545h35l2 2a50944 50944 0 00-2 26h-35l-2-2v-24l2-2zm0 0M213 652h35c2 0 3-1 2-2v-25l-2-2h-35l-2 2v25l2 2zm0 0"/>
    <path fill="#FFF" stroke="#000" stroke-miterlimit="10" stroke-width="5" d="M213 534h4l3 13h-4l-3-13zm0 0M244 534h4l-3 12h-4l3-12h0zm0 0"/>
    <path fill="#FFF" stroke="#000" stroke-miterlimit="10" stroke-width="5" d="M212 539c1 1 1 3 3 2 7-3 22-3 30 0l3-1 2-3c1-1 1-2-1-3-13-5-23-4-37 0-2 0-3 1-2 3l2 2zm0 0M214 663h4l2-13h-4l-2 13zm0 0M245 663h4l-3-13h-4l3 13zm0 0"/>
    <path fill="#FFF" stroke="#000" stroke-miterlimit="10" stroke-width="5" d="M213 658c0-1 0-3 2-2 8 3 23 2 31 0l3 1 2 3c1 1 1 2-1 3-13 4-24 4-38 0-1 0-2-1-1-3l2-2h0zm0 0M150 554h-22c-3 0-4 2-4 4v81c0 2 1 4 3 4h23"/>
    <path fill="#FFF" stroke="#000" stroke-miterlimit="10" stroke-width="3" d="M137 570c-1 0-3-1-3-3s2-3 3-3c2 0 3 1 3 3s-1 3-3 3zm0 0M137 634l-3-3c0-2 2-3 3-3 2 0 3 1 3 3 0 1-1 3-3 3zm0 0"/>
    <path fill="#FFF" d="M150 554l90-1v90h-90v-89zm0 0"/>
    <path stroke="#000" stroke-miterlimit="10" stroke-width="5" d="M150 643h90M150 554h90"/>
    <path fill="#FFF" stroke="#000" stroke-miterlimit="10" stroke-width="5" d="M240 553h22c3 0 4 3 4 4v82c0 2-1 4-3 4h-23"/>
    <path fill="#FFF" stroke="#000" stroke-miterlimit="10" stroke-width="3" d="M253 570l-3-3c0-2 1-3 3-3s3 1 3 3c0 1-1 3-3 3zm0 0M253 633c-1 0-3-1-3-3l3-3c2 0 3 2 3 3 0 2-1 3-3 3zm0 0"/>
    <path fill="gray" stroke="#000" stroke-miterlimit="10" stroke-width="5" d="M246 810h-47v2h47v-2zm0 0"/>
    <path fill="#FFF" stroke="#000" stroke-miterlimit="10" stroke-width="5" d="M251 750h-56l-1 55c0 4 1 5 4 5h48c4 0 5-1 5-4v-56zm0 0"/>
    <path fill="gray" stroke="#000" stroke-miterlimit="10" stroke-width="5" d="M251 755h-57v4h57v-4zm0 0"/>
    <path fill="#FFF" stroke="#000" stroke-miterlimit="10" stroke-width="5" d="M203 758l4-1-4-1-4 1 4 1zm0 0M213 758l4-1-4-1-4 1 4 1zm0 0M233 758l3-1-3-1-4 1 4 1zm0 0M242 758l4-1-4-1-4 1 4 1zm0 0"/>
    <path fill="#FFF" stroke="#000" stroke-miterlimit="10" stroke-width="6" d="M237 782c4 0 8-4 8-9s-4-8-8-8c-5 0-8 3-8 8s3 9 8 9zm0 0"/>
    <path fill="#FFF" stroke="#000" stroke-miterlimit="10" stroke-width="6" d="M237 780c3 0 6-3 6-7 0-3-3-6-6-6-4 0-6 3-6 6 0 4 2 7 6 7zm0 0"/>
    <path fill="#FFF" stroke="#000" stroke-miterlimit="10" stroke-width="6" d="M237 778c2 0 4-2 4-5 0-2-2-4-4-4-3 0-4 2-4 4 0 3 1 5 4 5h0zm0 0"/>
    <path d="M237 775l2-2-2-2-2 2 2 2zm0 0"/>
    <path fill="#FFF" stroke="#000" stroke-miterlimit="10" stroke-width="6" d="M208 804c5 0 9-4 9-9s-4-8-9-8c-4 0-8 3-8 8s4 9 8 9zm0 0"/>
    <path fill="#FFF" stroke="#000" stroke-miterlimit="10" stroke-width="6" d="M208 802c4 0 7-3 7-7 0-3-3-6-7-6-3 0-6 3-6 6 0 4 3 7 6 7zm0 0"/>
    <path fill="#FFF" stroke="#000" stroke-miterlimit="10" stroke-width="6" d="M208 800c3 0 5-2 5-5 0-2-2-4-5-4-2 0-4 2-4 4 0 3 2 5 4 5zm0 0"/>
    <path d="M209 797l1-2-1-2-2 2 2 2zm0 0"/>
    <path fill="#FFF" stroke="#000" stroke-miterlimit="10" stroke-width="6" d="M208 782c5 0 9-4 9-9s-4-8-9-8c-4 0-8 3-8 8s4 9 8 9zm0 0"/>
    <path fill="#FFF" stroke="#000" stroke-miterlimit="10" stroke-width="6" d="M208 780c4 0 7-3 7-7 0-3-3-6-7-6-3 0-6 3-6 6 0 4 3 7 6 7zm0 0"/>
    <path fill="#FFF" stroke="#000" stroke-miterlimit="10" stroke-width="6" d="M208 778c3 0 5-2 5-5 0-2-2-4-5-4-2 0-4 2-4 4 0 3 2 5 4 5zm0 0M237 804c4 0 8-4 8-9s-4-8-8-8c-5 0-8 3-8 8s3 9 8 9zm0 0"/>
    <path fill="#FFF" stroke="#000" stroke-miterlimit="10" stroke-width="6" d="M237 802c3 0 6-3 6-7 0-3-3-6-6-6-4 0-6 3-6 6 0 4 2 7 6 7zm0 0"/>
    <path fill="#FFF" stroke="#000" stroke-miterlimit="10" stroke-width="6" d="M237 800c2 0 4-2 4-5 0-2-2-4-4-4s-4 2-4 4c0 3 2 5 4 5zm0 0"/>
    <path d="M237 797l2-2-2-2-2 2 2 2zm0 0M209 775l1-2-1-2-2 2 2 2zm0 0"/>
    <path fill="#FFF" stroke="#000" stroke-miterlimit="10" stroke-width="3" d="M517 381v163h-43V381h43zm0 0"/>
    <path fill="#2F2F2F" d="M482 467c0-14 6-25 14-25 7 0 13 11 13 24 0 14-6 25-13 25-8 0-13-11-14-24zm0 0"/>
    <path fill="#A4A4A4" stroke="#2F2F2F" stroke-miterlimit="10" stroke-width="1.5" d="M498 403v127l-9-1V403h9zm0 0"/>
    <path fill="#2F2F2F" stroke="#2F2F2F" stroke-miterlimit="10" stroke-width="1.5" d="M503 410v111l-4 7-1-125 5 7zm0 0"/>
    <path fill="none" stroke="#FFF" stroke-miterlimit="10" stroke-width="1.5" d="M504 446v41M488 445v43"/>
    <path fill="#FFF" fill-opacity=".7" stroke="#000" stroke-miterlimit="10" stroke-width="5" d="M123 748h274v64H123v-64zm0 0"/>
    <path fill="none" stroke="#000" stroke-miterlimit="10" stroke-width="5" d="M123 750h274"/>
    <path fill="#FFF" stroke="#000" stroke-miterlimit="10" stroke-width="3" d="M329 759h64v53h-64v-1-51-1zm0 0"/>
    <path fill="#FFF" stroke="#000" stroke-miterlimit="10" stroke-width="3" d="M332 810h58l2-4v-42c0-2-1-3-2-3h-58c-1 0-2 1-2 4v41l2 4zm0 0"/>
    <path fill="#FFF" stroke="#000" stroke-miterlimit="10" stroke-width="3" d="M332 796c1 5 2 7 7 8h17c5 0 8-4 9-8v-24c-1-5-5-9-9-9h-16c-3 0-8 3-8 8v25zm0 0"/>
    <path fill="gray" stroke="#000" stroke-miterlimit="10" stroke-width="3" d="M348 780l-2 4 2 4 2-4-2-4zm0 0"/>
    <path fill="#FFF" stroke="#000" stroke-miterlimit="10" stroke-width="3" d="M390 799c-1 5-2 7-5 8l-11 1c-4-1-6-5-6-10v-26c0-4 3-9 5-9h11c2 0 5 3 6 9v27zm0 0"/>
    <path fill="#FFF" stroke="#000" stroke-miterlimit="10" stroke-width="3" d="M370 801h18v-1-1h-18l-1 1 1 1zm0 0M369 796h20v-1-1h-20v2zm0 0M369 791h20v-1-1h-20v2zm0 0M369 786h19l1-1-1-1h-19v2zm0 0M369 781h19l1-1-1-1h-19v2zm0 0M369 776h19l1-1-1-1h-19v2zm0 0M370 772h18v-1-1h-18l-1 1 1 1zm0 0"/>
    <path fill="gray" stroke="#000" stroke-miterlimit="10" stroke-width="3" d="M348 805c-1 0-2 1-2 3s1 3 2 3l1-3-1-3zm0 0"/>
    <path fill="gray" stroke="#000" stroke-miterlimit="10" stroke-width="3" d="M347 809a406 406 0 00-5-6l5 6zm0 0"/>
    <path fill="#FFF" stroke="#000" stroke-miterlimit="10" stroke-width="5" d="M171 812h-47v-1-27-1a188072 188072 0 0148 1v27l-1 1h0zm0 0"/>
    <path fill="#828282" stroke="#000" stroke-miterlimit="10" stroke-width="5" d="M128 783h-1v-1h1v1h0zm0 0"/>
    <path fill="none" stroke="#000" stroke-miterlimit="10" stroke-width="5" d="M172 784h-39M133 785v-2"/>
    <path fill="#828282" stroke="#000" stroke-miterlimit="10" stroke-width="5" d="M132 783h-3v-1h3v1zm0 0M126 783h-1v-1h1v1zm0 0"/>
    <path fill="#828282" d="M148 806a8 8 0 110-17 8 8 0 010 17zm0 0"/>
    <path fill="none" stroke="#FFF" stroke-miterlimit="10" stroke-width="10.4" d="M144 794c3-1 5 2 9 1M144 797c3-1 5 2 9 1M144 799c3 0 5 3 9 2"/>
    <path fill="gray" stroke="#000" stroke-miterlimit="10" stroke-width="5" d="M465 760h5v5h-5v-5zm0 0"/>
    <path fill="#FFF" stroke="#000" stroke-miterlimit="10" stroke-width="5" d="M397 773h85v85h-85v-85zm0 0M399 769c9-7 76-7 81-1 2 2 2 5 2 5h-85l2-4zm0 0"/>
    <path fill="gray" d="M439 822a13 13 0 110-26 13 13 0 010 26zm0 0"/>
    <path fill="none" stroke="#FFF" stroke-miterlimit="10" stroke-width="6" d="M436 800l3 4 4-4M439 799v10M445 802l-1 4 5 2M448 804l-9 5M448 811l-4 1 1 4M448 814l-9-5M434 816l1-4-5-1M431 814l8-5M436 818l3-3 4 3M439 819v-10M434 802l1 4-5 2M431 804l8 5"/>
    <path fill="#FFF" stroke="#000" stroke-miterlimit="10" stroke-width="3" d="M482 858v-85h50v85h-50zm0 0M532 858v-41h3v41h-3zm0 0M532 815v-42h2l1 42h-3zm0 0"/>
    <path fill="#828282" stroke="#828282" stroke-miterlimit="10" stroke-width="3" d="M544 821l-3 1-3-1c0-1 1-2 3-2l3 2zm0 0M535 821v-1h3v1h-3zm0 0M544 810l-3 1-3-1 3-1 3 1zm0 0M535 811v-2h3v2h-3zm0 0"/>
    <path fill="#FFF" stroke="#000" stroke-miterlimit="10" stroke-width="3" d="M513 215v60h-40v-60h40zm0 0"/>
    <path fill="#FFF" stroke="#2F2F2F" stroke-miterlimit="10" d="M511 216v58h-36v-58h36zm0 0"/>
    <path fill="#828282" stroke="#828282" stroke-miterlimit="10" stroke-width="3" d="M473 269h-2s0 0 0 0 0 0 0 0h2M473 269s0 0 0 0M473 221h-2-1 3M473 221s0 0 0 0M472 271v1l-1-1v-51l1-1v52zm0 0"/>
    <path fill="none" stroke="#636363" stroke-miterlimit="10" d="M442 291c0 45 37 81 82 81"/>
    <path fill="#636363" d="M524 290h-82v9h82v-9zm0 0"/>
    <path fill="none" stroke="#636363" stroke-miterlimit="10" d="M639 969c-57 0-103-47-103-104"/>
    <path fill="#636363" d="M639 865v104h-10V865h10zm0 0"/>
    <path fill="#FFF" stroke="#000" stroke-miterlimit="10" stroke-width="3" d="M203 196h76v-12h-76v12zm0 0"/>
    <path stroke="#000FFF" stroke-miterlimit="10" stroke-width="6" d="M205 190h72"/>
    <path stroke="#000" stroke-miterlimit="10" stroke-width="3" d="M203 193h2v-7h-2v7zm0 0M277 193h2v-7h-2v7zm0 0"/>
    <path fill="#FFF" stroke="#000" stroke-miterlimit="10" stroke-width="3" d="M282 196h77v-12h-77v12zm0 0"/>
    <path stroke="#000FFF" stroke-miterlimit="10" stroke-width="6" d="M285 190h71"/>
    <path stroke="#000" stroke-miterlimit="10" stroke-width="3" d="M282 193h2v-7h-2v7zm0 0M356 193h3v-7h-3v7zm0 0"/>
    <path fill="#FFF" stroke="#000" stroke-miterlimit="10" stroke-width="3" d="M360 196h76v-12h-76v12zm0 0"/>
    <path stroke="#000FFF" stroke-miterlimit="10" stroke-width="6" d="M362 190h72"/>
    <path stroke="#000" stroke-miterlimit="10" stroke-width="3" d="M360 193h2v-7h-2v7h0zm0 0M434 193h2v-7h-2v7zm0 0"/>
    <path fill="#FFF" stroke="#000" stroke-miterlimit="10" stroke-width="5" d="M867 204l1 41h-30v-41h29zm0 0M869 441v41h-29v-41h29zm0 0M869 263v161c0 4-2 8-5 8H652c-3 0-6-3-6-8V263c0-4 2-8 6-8h211c4 0 6 3 6 8zm0 0"/>
    <path fill="gray" stroke="#000" stroke-miterlimit="10" stroke-width="5" d="M877 255v177h-8V255h8zm0 0M760 255v177h-96V255h96zm0 0"/>
    <path fill="#FFF" stroke="#000" stroke-miterlimit="10" stroke-width="5" d="M864 275v57c0 3-3 5-6 5h-25c-3 0-5-2-5-5v-57c0-3 2-6 5-6h25c3 0 6 3 6 6zm0 0M864 354v57c0 3-2 6-5 6h-26c-3 0-5-3-5-6v-57c0-3 2-5 5-5h25c3 0 6 2 6 5zm0 0"/>
    <path fill="#FFF" stroke="#000" stroke-miterlimit="10" stroke-width="3" d="M760 555H538v-57l222-1v58zm0 0M760 497h-75v-3h75v3zm0 0M613 497l-76 1v-4h76v3zm0 0M686 494h-76v-4h76v4zm0 0"/>
    <path fill="#FFF" stroke="#000" stroke-miterlimit="10" stroke-width="5" d="M676 569h196l1 74H676v-74zm0 0"/>
    <path fill="none" stroke="#000" stroke-miterlimit="10" stroke-width="5" d="M685 606c1-15 7-30 29-30h127c16 0 23 16 24 29 0 13-8 29-24 29H709c-15 0-24-13-24-28zm0 0"/>
    <path fill="gray" stroke="#000" stroke-miterlimit="10" stroke-width="5" d="M828 609c-2 0-4-1-4-3 0-1 2-3 4-3l3 3c0 2-2 3-3 3zm0 0M859 610l-2-4 2-4 1 4-1 4zm0 0"/>
    <path fill="none" stroke="#000" stroke-miterlimit="10" stroke-width="5" d="M723 607c1-8 4-17 18-17h83c10 0 16 9 16 16s-5 16-15 16h-86c-10 0-16-7-16-15zm0 0"/>
    <path fill="gray" stroke="#000" stroke-miterlimit="10" stroke-width="5" d="M867 604c4 0 4 4 1 4h-15c-4 0-5-4 0-4h14zm0 0"/>
    <path fill="#FFF" stroke="#000" stroke-miterlimit="10" stroke-width="5" d="M777 793h22s1-14 3-16c3-7 4-19 1-25-7-13-21-14-28-3-4 5-6 17 0 28 2 4 2 16 2 16h0zm0 0"/>
    <path fill="#FFF" stroke="#000" stroke-miterlimit="10" stroke-width="5" d="M800 806c8 0 10-10 3-15-5-4-22-4-29 0s-5 15 2 15h24zm0 0"/>
    <path fill="gray" stroke="#000" stroke-miterlimit="10" stroke-width="5" d="M788 795l-2 3 2 2c2 0 3-1 3-2s-1-3-3-3h0zm0 0"/>
    <path fill="none" stroke="#000" stroke-miterlimit="10" stroke-width="5" d="M779 784h19l2-9c2-5 3-7 3-13 0-7-6-18-15-19-10 0-15 13-15 19 0 7 1 9 3 12l3 10zm0 0"/>
    <path fill="#FFF" stroke="#000" stroke-miterlimit="10" stroke-width="5" d="M676 807h65v-40c0-3-1-4-4-4l-56 1c-3 0-5 1-5 3v40zm0 0"/>
    <path fill="gray" stroke="#000" stroke-miterlimit="10" stroke-width="5" d="M676 804h65v-3h-65v3zm0 0"/>
    <path fill="#FFF" stroke="#000" stroke-miterlimit="10" stroke-width="5" d="M688 803h3v-1h-3v1zm0 0M692 803h3v-1h-3v1zm0 0M697 803h3v-1h-3v1zm0 0M729 801l-6 1 6 1 6-1-6-1zm0 0M684 798h48l3-2v-26l-3-2a195464 195464 0 00-51 2v26l3 2zm0 0"/>
    <path fill="gray" d="M697 787c1 5 6 10 12 10s10-6 11-10c-2 3-5 3-7 0-3 4-6 4-8 0-2 3-6 3-8 0zm11 11a13 13 0 110-26 13 13 0 010 26zm0 0"/>
    <path fill="#FFF" stroke="#000" stroke-miterlimit="10" stroke-width="5" d="M872 739v-87h-48v87h48zm0 0"/>
    <path fill="#FFF" stroke="#000" stroke-miterlimit="10" stroke-width="5" d="M859 724v-58h-27v58h27zm0 0"/>
    <path fill="gray" stroke="#000" stroke-miterlimit="10" stroke-width="5" d="M869 700v-9h-6v9h6zm0 0"/>
    <path fill="gray" stroke="#000" stroke-miterlimit="10" stroke-width="5" d="M870 698v-5h-17v5h17zm0 0M843 696c0 1 1 3 3 3l2-3-2-4c-2 0-3 2-3 4zm0 0"/>
    <path fill="none" stroke="#636363" stroke-miterlimit="10" d="M587 674c0 45 37 81 83 81"/>
    <path fill="#636363" d="M669 674h-82v8h82v-8zm0 0"/>
    <path fill="none" stroke="#636363" stroke-miterlimit="10" d="M558 750c48 0 87-39 87-88"/>
    <path fill="#636363" d="M558 663v87h9v-87h-9zm0 0"/>
    <path fill="none" stroke="#636363" stroke-miterlimit="10" d="M674 248a83 83 0 01-24-58"/>
    <path fill="#636363" d="M683 246l-6 6-6-6 6-5 6 5zm0 0"/>
    <path fill="#000FFF" d="M722 197l4 3-44 45-4-3 44-45zm0 0"/>
    <path fill="#636363" d="M733 196l-6 6-6-6 6-6 6 6zm0 0"/>
    <path fill="#FFF" stroke="#000" stroke-miterlimit="10" stroke-width="3" d="M648 185l-87 1v12l87-1v-12zm0 0"/>
    <path stroke="#000FFF" stroke-miterlimit="10" stroke-width="6" d="M645 191l-81 1"/>
    <path stroke="#000" stroke-miterlimit="10" stroke-width="3" d="M648 187l-3 1v7l3-1v-7zm0 0M564 188h-3v7h3v-7zm0 0"/>
    <path fill="#FFF" stroke="#000" stroke-miterlimit="10" stroke-width="3" d="M552 182l-1-80h-12v80h13zm0 0"/>
    <path stroke="#000FFF" stroke-miterlimit="10" stroke-width="6" d="M545 180v-76"/>
    <path stroke="#000" stroke-miterlimit="10" stroke-width="3" d="M549 182v-2h-7v2h7zm0 0M549 104v-2h-7v2h7zm0 0"/>
    <path fill="#FFF" stroke="#000" stroke-miterlimit="10" stroke-width="3" d="M552 99l52-45-8-9-52 44 8 10zm0 0"/>
    <path stroke="#000FFF" stroke-miterlimit="10" stroke-width="6" d="M550 92l48-41"/>
    <path stroke="#000" stroke-miterlimit="10" stroke-width="3" d="M550 97l2-2-5-5-1 1 4 6zm0 0M601 53l1-1-4-5-2 1 5 5zm0 0"/>
    <path fill="#FFF" stroke="#000" stroke-miterlimit="10" stroke-width="3" d="M605 54h67V42h-66l-1 12zm0 0"/>
    <path stroke="#000FFF" stroke-miterlimit="10" stroke-width="6" d="M608 48h61"/>
    <path stroke="#000" stroke-miterlimit="10" stroke-width="3" d="M605 51h2l1-7h-2l-1 7zm0 0M670 52h2v-7h-2v7zm0 0"/>
    <path fill="#FFF" stroke="#000" stroke-miterlimit="10" stroke-width="3" d="M810 55l66 1V44l-66-1v12zm0 0"/>
    <path stroke="#000FFF" stroke-miterlimit="10" stroke-width="6" d="M812 49l62 1"/>
    <path stroke="#000" stroke-miterlimit="10" stroke-width="3" d="M810 53h2v-7h-2v7zm0 0M874 53h2v-7h-2v7zm0 0"/>
    <path fill="#FFF" stroke="#000" stroke-miterlimit="10" stroke-width="3" d="M675 54l132 1V43l-132-1v12zm0 0"/>
    <path fill="none" stroke="#000FFF" stroke-miterlimit="10" stroke-width="6" d="M679 48l57 1"/>
    <path fill="none" stroke="#000" stroke-miterlimit="10" stroke-width="3" d="M675 52h4v-7h-4v7zm0 0M803 53h4v-7h-4v7zm0 0"/>
    <path fill="none" stroke="#000FFF" stroke-miterlimit="10" stroke-width="6" d="M746 49h56"/>
    <path fill="none" stroke="#000" stroke-miterlimit="10" stroke-width="3" d="M737 52h4v-7h-4v7zm0 0M741 52h4v-7h-4v7zm0 0"/>
    <use x="-110" y="1082" xlink:href="#d"/>
    <use x="-103" y="1082" xlink:href="#e"/>
    <use x="-94" y="1082" xlink:href="#f"/>
    <use x="-90" y="1082" xlink:href="#g"/>
    <use x="-84" y="1082" xlink:href="#h"/>
    <use x="-81" y="1082" xlink:href="#i"/>
    <use x="-74" y="1082" xlink:href="#j"/>
    <use x="-68" y="1082" xlink:href="#k"/>
    <use x="-59" y="1082" xlink:href="#k"/>
    <use x="-50" y="1082" xlink:href="#l"/>
    <use x="-42" y="1082" xlink:href="#m"/>
    <use x="-35" y="1082" xlink:href="#j"/>
    <use x="-29" y="1082" xlink:href="#n"/>
    <use x="-21" y="1082" xlink:href="#o"/>
    <use x="-12" y="1082" xlink:href="#h"/>
    <use x="-9" y="1082" xlink:href="#f"/>
    <use x="-5" y="1082" xlink:href="#g"/>
    <use x="2" y="1082" xlink:href="#h"/>
    <use x="5" y="1082" xlink:href="#m"/>
    <use x="12" y="1082" xlink:href="#l"/>
    <use x="20" y="1082" xlink:href="#k"/>
    <use x="29" y="1082" xlink:href="#p"/>
    <use x="36" y="1082" xlink:href="#f"/>
    <use x="41" y="1082" xlink:href="#q"/>
    <use x="49" y="1082" xlink:href="#r"/>
    <use x="56" y="1082" xlink:href="#q"/>
    <use x="65" y="1082" xlink:href="#h"/>
    <use x="68" y="1082" xlink:href="#s"/>
    <use x="79" y="1082" xlink:href="#f"/>
    <use x="83" y="1082" xlink:href="#d"/>
    <use x="90" y="1082" xlink:href="#e"/>
    <use x="99" y="1082" xlink:href="#k"/>
    <use x="108" y="1082" xlink:href="#t"/>
    <use x="117" y="1082" xlink:href="#d"/>
    <use x="123" y="1082" xlink:href="#h"/>
    <use x="127" y="1082" xlink:href="#s"/>
    <use x="138" y="1082" xlink:href="#n"/>
    <use x="145" y="1082" xlink:href="#l"/>
    <use x="153" y="1082" xlink:href="#l"/>
    <use x="160" y="1082" xlink:href="#n"/>
    <use x="168" y="1082" xlink:href="#o"/>
    <use x="177" y="1082" xlink:href="#d"/>
    <use x="184" y="1082" xlink:href="#u"/>
    <use x="190" y="1082" xlink:href="#h"/>
    <use x="193" y="1082" xlink:href="#k"/>
    <use x="203" y="1082" xlink:href="#i"/>
    <use x="209" y="1082" xlink:href="#h"/>
    <use x="212" y="1082" xlink:href="#n"/>
    <use x="220" y="1082" xlink:href="#o"/>
    <use x="229" y="1082" xlink:href="#u"/>
    <use x="236" y="1082" xlink:href="#h"/>
    <use x="239" y="1082" xlink:href="#v"/>
    <use x="246" y="1082" xlink:href="#f"/>
    <use x="250" y="1082" xlink:href="#o"/>
    <use x="260" y="1082" xlink:href="#q"/>
    <use x="268" y="1082" xlink:href="#w"/>
    <use x="271" y="1082" xlink:href="#h"/>
    <use x="274" y="1082" xlink:href="#g"/>
    <use x="281" y="1082" xlink:href="#r"/>
    <use x="288" y="1082" xlink:href="#o"/>
    <use x="297" y="1082" xlink:href="#g"/>
    <use x="303" y="1082" xlink:href="#k"/>
    <use x="313" y="1082" xlink:href="#m"/>
    <use x="320" y="1082" xlink:href="#f"/>
    <use x="324" y="1082" xlink:href="#n"/>
    <use x="332" y="1082" xlink:href="#h"/>
    <use x="335" y="1082" xlink:href="#q"/>
    <use x="344" y="1082" xlink:href="#f"/>
    <use x="348" y="1082" xlink:href="#g"/>
    <use x="354" y="1082" xlink:href="#x"/>
    <use x="362" y="1082" xlink:href="#j"/>
    <use x="368" y="1082" xlink:href="#n"/>
    <use x="376" y="1082" xlink:href="#f"/>
    <use x="380" y="1082" xlink:href="#y"/>
    <use x="391" y="1082" xlink:href="#g"/>
    <use x="397" y="1082" xlink:href="#h"/>
    <use x="400" y="1082" xlink:href="#n"/>
    <use x="408" y="1082" xlink:href="#o"/>
    <use x="417" y="1082" xlink:href="#u"/>
    <use x="424" y="1082" xlink:href="#h"/>
    <use x="427" y="1082" xlink:href="#s"/>
    <use x="438" y="1082" xlink:href="#n"/>
    <use x="446" y="1082" xlink:href="#l"/>
    <use x="453" y="1082" xlink:href="#l"/>
    <use x="461" y="1082" xlink:href="#n"/>
    <use x="468" y="1082" xlink:href="#o"/>
    <use x="477" y="1082" xlink:href="#d"/>
    <use x="484" y="1082" xlink:href="#u"/>
    <use x="491" y="1082" xlink:href="#h"/>
    <g>
      <use x="-110" y="1099" xlink:href="#f"/>
      <use x="-106" y="1099" xlink:href="#o"/>
      <use x="-97" y="1099" xlink:href="#x"/>
      <use x="-89" y="1099" xlink:href="#j"/>
      <use x="-83" y="1099" xlink:href="#t"/>
      <use x="-74" y="1099" xlink:href="#q"/>
      <use x="-66" y="1099" xlink:href="#f"/>
      <use x="-61" y="1099" xlink:href="#o"/>
      <use x="-52" y="1099" xlink:href="#z"/>
      <use x="-44" y="1099" xlink:href="#A"/>
      <use x="-40" y="1099" xlink:href="#h"/>
      <use x="-37" y="1099" xlink:href="#s"/>
      <use x="-26" y="1099" xlink:href="#f"/>
      <use x="-22" y="1099" xlink:href="#d"/>
      <use x="-15" y="1099" xlink:href="#e"/>
      <use x="-6" y="1099" xlink:href="#k"/>
      <use x="3" y="1099" xlink:href="#t"/>
      <use x="12" y="1099" xlink:href="#d"/>
      <use x="18" y="1099" xlink:href="#h"/>
      <use x="22" y="1099" xlink:href="#j"/>
      <use x="28" y="1099" xlink:href="#f"/>
      <use x="32" y="1099" xlink:href="#y"/>
      <use x="43" y="1099" xlink:href="#f"/>
      <use x="47" y="1099" xlink:href="#d"/>
      <use x="53" y="1099" xlink:href="#n"/>
      <use x="60" y="1099" xlink:href="#d"/>
      <use x="67" y="1099" xlink:href="#f"/>
      <use x="71" y="1099" xlink:href="#k"/>
      <use x="81" y="1099" xlink:href="#o"/>
      <use x="90" y="1099" xlink:href="#A"/>
      <use x="93" y="1099" xlink:href="#h"/>
      <use x="96" y="1099" xlink:href="#g"/>
      <use x="103" y="1099" xlink:href="#n"/>
      <use x="110" y="1099" xlink:href="#d"/>
      <use x="117" y="1099" xlink:href="#f"/>
      <use x="121" y="1099" xlink:href="#g"/>
      <use x="127" y="1099" xlink:href="#i"/>
      <use x="133" y="1099" xlink:href="#n"/>
      <use x="141" y="1099" xlink:href="#x"/>
      <use x="148" y="1099" xlink:href="#d"/>
      <use x="155" y="1099" xlink:href="#k"/>
      <use x="164" y="1099" xlink:href="#l"/>
      <use x="172" y="1099" xlink:href="#u"/>
      <use x="179" y="1099" xlink:href="#h"/>
      <use x="182" y="1099" xlink:href="#B"/>
      <use x="191" y="1099" xlink:href="#t"/>
      <use x="200" y="1099" xlink:href="#n"/>
      <use x="208" y="1099" xlink:href="#j"/>
      <use x="214" y="1099" xlink:href="#f"/>
      <use x="218" y="1099" xlink:href="#d"/>
      <use x="225" y="1099" xlink:href="#u"/>
      <use x="231" y="1099" xlink:href="#h"/>
      <use x="234" y="1099" xlink:href="#k"/>
      <use x="244" y="1099" xlink:href="#l"/>
      <use x="251" y="1099" xlink:href="#h"/>
      <use x="254" y="1099" xlink:href="#n"/>
      <use x="262" y="1099" xlink:href="#x"/>
      <use x="269" y="1099" xlink:href="#x"/>
      <use x="277" y="1099" xlink:href="#t"/>
      <use x="286" y="1099" xlink:href="#l"/>
      <use x="293" y="1099" xlink:href="#n"/>
      <use x="301" y="1099" xlink:href="#x"/>
      <use x="308" y="1099" xlink:href="#u"/>
      <use x="315" y="1099" xlink:href="#h"/>
      <use x="318" y="1099" xlink:href="#k"/>
      <use x="328" y="1099" xlink:href="#i"/>
      <use x="334" y="1099" xlink:href="#h"/>
      <use x="337" y="1099" xlink:href="#q"/>
      <use x="346" y="1099" xlink:href="#f"/>
      <use x="350" y="1099" xlink:href="#y"/>
      <use x="361" y="1099" xlink:href="#r"/>
      <use x="367" y="1099" xlink:href="#o"/>
      <use x="377" y="1099" xlink:href="#g"/>
      <use x="383" y="1099" xlink:href="#f"/>
      <use x="387" y="1099" xlink:href="#k"/>
      <use x="397" y="1099" xlink:href="#o"/>
      <use x="406" y="1099" xlink:href="#g"/>
      <use x="412" y="1099" xlink:href="#w"/>
    </g>
    <use transform="matrix(.1 0 0 .1 852 1105)" xlink:href="#C"/>
    <path fill="#b2b2b2" fill-opacity=".3" stroke="null" stroke-opacity="null" stroke-width="null" d="M880 53v131" opacity=".5"/>
    <path fill="#b2b2b2" fill-opacity=".5" stroke="null" stroke-width="null" d="M552 185l327-2V54H604l-54 44" opacity=".5"/>
  </g>
</svg>
